<?xml version="1.0" encoding="UTF-8"?>
<svg id="Capa_1" xmlns="http://www.w3.org/2000/svg" version="1.1" viewBox="0 0 988.79 489.88">
  <!-- Generator: Adobe Illustrator 30.1.0, SVG Export Plug-In . SVG Version: 2.1.1 Build 136)  -->
  <defs>
    <style>
      .st0 {
        fill: red;
      }

      .st0, .st1 {
        display: none;
      }

      .st1 {
        fill: #fff;
      }
    </style>
  </defs>
  <path class="st1" d="M0,489.88V0h988.79v489.88H0ZM417.1,39.74h18.21s.51-2.76.51-2.76l5.71-.25.04-5.97,28.93-.04.29,4.5,28.29,4.09c1.08.16,2.42.59,3.4.14l.64-6.33-11.03-.46-9.58-.74c-1.34-.29-2.6-.5-4.02-1.02l26.98-.23,3.61.48,12.49.09-.12-8.7c-4.35,0-7.96-.14-11.91.19-2.26.19-4.49.89-6.69.42l-.13-8.08c-.67-.58-2.69-.36-2.98.33l-3.29,7.88-54.65-.09-.55-2.01-25.22-.03-.46-3.76-16.26.08-24.64.02-.06-5.24,16.15-.06-.02-7.27-23.91.03-.11,7.08,3.14.38-.1,5.09-13.42.09-.12,3.6-38.98.05c-1.32,0-2.23,2.38-2.22,3.45l.2,22.7c.87,2.63,8.29,1.61,9.28,1.22l8.87-3.5c8.66-3.41,12.9-7.31,22.75-6.68.17,4.95,2.17.68,3.31,6.53l-6.74,15.75,11.9,2.43,5.31-13.2,9.81-.06,4.39-3.63,1.54-6.73,7.41-.12c.63,0,.98,1.91.33,2.13-2.1.7-3.17,2.64-3.14,4.97l.2,16.04c.03,2.03,1.93,3.55,3.88,3.55h21.68c2.36,0,3.42-2.37,3.41-4.21l-.06-17.21c-.01-3.75-4.41-2.85-3.61-4.28.14-.25.89-.68,1.35-.68ZM324.39,72.51c-7.39-9.02-17.59-14.32-27.81-17.61l-1.17-2.71h-27.09s-.81,2.93-.81,2.93c-10.52,2.82-19.39,8.32-26.96,16.05l-.79.81c-.13.13.32.56,1.16.56l83.47-.04ZM421.88,85.54l-.04-20.98c-2.06,2.54-3.58,3.6-6.16,4.03l-.06,17.12c2.18.29,4,.25,6.26-.17ZM413.58,81.18l-.16-13.04-14.17.06c.51,3.11.92,5.45,1.68,8.2l1.37,4.96,11.28-.18ZM336.14,91.05c-2.61-2.38-4.9-3.17-7.41-4.68l-.14-10.5-29.13-.22-51.87.06-12.37.14-.1,10.26c-2.98,1.7-5.9,2.73-9.1,4.94l40.03.14,29.84-.08,40.26-.06ZM402.09,83.33l-.02,35.15h11.43s.02-35.15.02-35.15h-11.43ZM166.43,189.88l69.76-.1,20.93-.08c2.74-3.52,4.99-7.32,7.46-11.09l12.16-18.55,11.78-17.96c1.83-2.78,3.22-6.01,5.8-8.26,5.04-4.39,12.34-5.9,18.89-4.77,2.46.43,4.45,2.09,6.76,3.21l77.07,37.41c1.09.53,2.3.93,3.41,1.14l20.1,3.83,16.25,3.27c4.46.9,8.54,1.82,13.55,2.23l-32.69-30.61-54.06-49.84-274.28-.03-9.89-.43c-3.12,2.23-5.71,4.66-8.46,7.38-1.03,1.02-2.69,2.41-2.72,3.9l-.15,6.35c-.44-.39-1.22-.92-1.63-.72l-11.79,5.68c-.77.37-1.61,1.51-1.61,2.27v24.42c1.07,1.06,2.46,1.8,3.77,2.44l10.28,5c.49,1.15.55,3.03.56,4.38l6.69,9.53c.8,1.15,2.15,2.06,3.53,2.34l25.93,5.26,16.91,3.37,17.92,3.65,27.75,5.37ZM945.3,176.97l8.34-.18,9.25-9.89,13.52-14.35-.02-12.83-22.55-23.96c-3.07-.16-5.6-.2-8.68,0l-3.56,4.15c-6.05,6.1-14.47,9.22-23.2,9.66l-.1,33.2c7.16.99,13.91,2.78,19.82,7.06,2.68,1.94,4.72,4.59,7.17,7.14ZM484.87,170.71l17.62-.58-.02-45.72-16.51-.09-82.77-.08,39.65,36.75,9.81,9.31c.74.65,2.01,1.22,3.11,1.19l29.11-.79ZM898.97,161.74l15.54,1.07-.03-32.98-9.73.62c-2.02.13-3.95.23-5.79.93v30.37ZM842.42,161.59l51.25-.18c.4.16,1.37-.65,1.37-1.14l-.05-28.6-111.64-.18-29.02-.24-55.66-.16-78.94-.32-111.99-.3.04,32.32,40.6-.13,47.47-.2,105.1-.25,13.7-.21,57.77-.24,69.99-.17ZM444.23,188.5l-18.64-3.82-13.94-2.86-9.23-1.66c-4.91-.88-9.03-2.35-13.52-4.56l-57.21-28.14c-4.99-2.45-8.87-5.81-14.23-7.52-6.46-2.07-8.46-5.29-17.8.69l-11.74,18.15-25.71,39.36-79.09.36-10.39,27.99h297.74s-8.06-18.08-8.06-18.08l-8-17.82-10.2-2.08ZM718.02,260.32c2.92.64,6.11,1.29,8.8.94s7.04-6.63,5.29-12.34c-.77-2.5-2.12-4.57-4.45-5.95l-14.46-8.57-3.99-2.44-10.6-6.43-4.53-2.73-14.44-8.64-12.39-7.54c-4.9-2.98-10.5-3.5-14.96.82-2.52,2.45-4.1,6.01-5.19,9.72l12.44,7.68,21.74,13.55,6.72,4.13,4.47,2.75,6.98,4.3,3.45,2.3,7.74,4.56c2.25,1.32,4.54,3.28,7.38,3.9ZM484.4,273.38l.56,9.32,11.75-.24,20.32-.47,26.02-.86,15.61-.48,104.7-3.13,75.3-2.29,16.86-.46,15.13-.37,6.76-.28c.41-.02,1.2-.64,1-.97-1.45-2.44-6.25-2.29-9.74-2.68l-7.37-.82-5.2-.55c-.63-.07-1.28-1.52-1.28-2.15v-4.19c.01-.38.88-1.06,1.24-1.01l6.28.81c2.03.26,3.86.56,5.88.94l4.08.76c.26.05,1.13-.33,1.35-.47.15-.09-.03-.46-.12-.98l-.89-27.65c-.02-.5-.8-.89-1.14-.82l-5.16,1.11-8.94,2.27c-4.94,1.26,2.72-10.31,10.47-10.47l10.92-.22c3.19-.06,6.7-.75,9.76-.12,3.62.75,5.04,4.61,5.13,7.81l.23,8.18.4,16.43.31,18.35c-3.16.87-11.68-.53-11.62,1.32l.21,7.25c.02.72.32,2.22.9,2.22,14.19-.03,21.63-.15,34.71,5.16,10.88,4.41,19.89,11.43,27.19,20.62l11.57-.11c.28,0,1.14-.51,1.31-.74.13-.17-.06-.71-.19-.92-7.08-11.65-8.16-13.36-18.91-22.27-3.71-3.07-10.09-6.12-14.75-7.82-10.16-3.7-11.22-3.83-21.92-4.75-.92-.08-3.11-.03-3.38-.95l-.44-15.57-.35-17.78-.35-9.53c-.15-4.11-2.25-8.07-5.81-10.43s-9.65-1.77-13.93-1.58l-10.13.44c-6.01.26-11.56,3.24-15.32,7.96-1.75,2.2-2.68,5.35-3.92,7.81-1.01,2.01-3.84-.66-6.09,2.95-3.52,5.66-2.32,15.65,1.56,19.8,1.24,1.33,4.69-.16,4.7,1.73l.03,6.16-9.38-.79c-3.89-.33-22.02-2.16-24.41-3.01-4.37-1.56-8.26-4.57-12.26-7.03l-25.63-15.75-6.72-4.17-6.17-3.78-7.9-4.84-7.59-4.65-4.98-3.05c-4.59-2.81-9.02-5.88-13.86-8.38-4.47-.47-9.45-.02-14.02.09l-18.09.44-18.06.45-17.98.46-18.15.44-16.72.45-18.51.45-14.2.39-10.65.34.36,21.34-19.78.54-17.37.36-13.09.18-9.97.38-16.05.41-17.62.45-18.52.45-18.6.45-17.99.46-17.62.45-18.07.46-18.07.45-18.07.45-17.62.45-18.6.47-17.62.45-18.07.45-18.07.45-17.62.45-18.52.46-18.07.45-18.12.46-15.32.31c-1.47.03-1.81.91-1.78,2.21l1.06,43.88,16.75-.26,51.17-1.49c3.92-.11-.09-7.02,1.94-10.97.8-1.56,2.28-3.28,3.36-4.69l6.65-8.7c1.43-.16,3.29-.43,4.76-.46l17.01-.34,18.06-.46,14.21-.38,12.49-.28,11.11,13.06c.79,2.4-.72,10.56,1.55,10.48l12.35-.46v-10.82s5.36-6.43,5.36-6.43l5.06-6.69,10.17-.29,18.05-.45,18.43-.45,18.15-.44,15.57-.4,10.63-.24,10.88,12.9.41,8.78c.03.56,1.06,1.25,1.51,1.23l12.22-.52.2-10.26,9.89-13.02,10.62-.28,17.97-.46,18.07-.45,18.14-.46,14.86-.24,6.59,7.63c1.42,1.64,3.3,3.97,4.57,5.67ZM778.52,234.31c-.29-.33-1.53-.67-1.71-.34-.14.25-.42.99-.41,1.49l.65,27.67c0,.43.61,1.51.99,1.41,4.56-1.15,9.54-19.98.48-30.24ZM80.77,292.67l-.47-17.28-.42-13.58-39.77.92c-3.23,11.44-1.04,23.77,5.95,33.53,7.96-2.33,15.77-3.08,23.95-3.29,5.02-.13,7.39.26,10.75-.29ZM30.87,328.7c9.93-11.06,29.95-19.09,44.56-19.51l18.95-.55,74.38-2.19,16.26-.54,17.52-.45,17.26-.45,17.52-.46,16.81-.45,18.87-.51,8.6-.37,15.88-.45,17.16-.45,16.26-.46,15.43-.44,14.58-.41,12.19-.31,18.42-.63,16.26-.49,14.46-.44,16.62-.46,15.81-.45,15.91-.43,26.9-.91,13.66-.46,17.52-.45,16.72-.46,17.24-.44,12.58-.46,15.89-.45,16.62-.45,16.79-.44,12.58-.45,17.15-.45,16.71-.46,15.12-.45,40.15-1.25,16.12-.57,15.81-.45,21.14-.61-.14-10.41-4.51.13-14.24.42-18.05.44-15.44.45-84.09,2.34-23.06.82-34.99.92-27.38.92-15.17.42-17.61.46-17.16.46-15.81.45-15.26.48-11.32.43-17.6.45-17.62.47-17.25.45-17.98.45-17.61.45-14.56.45-17,.45-22.3.85-15.8.49-15.89.45-15.39.43-42.2,1.33-16.86.5-17.16.46-16.25.43-11.23.44-15.88.46-14.2.35-16.6.54-16.63.47-14.66.38c-4.09.11-8.04.45-12.08.13-8.36-.65-19.88-.22-28.02,1.69l-9.12,2.15c-5.09,1.2-9.37,3.92-13.87,6.45-6.26,3.52-11.45,8.21-16.08,13.75-3.4,4.07-4.37,6.98-6.84,11.12-.23.39-.54,1.87-.08,1.86l1.66-.06,15.64-.63,5.27-5.87ZM29.32,303.26c.55-.37.97-1.75.93-2.49l-.49-11.36c-4.39-2.12-10.37-.38-12.56,3.91-2.93,5.72-1.53,12.57,3.73,15.61l8.39-5.67ZM87.37,320.21c-9.57.29-18.24,1.11-26.92,4.86-26.69,11.54-40.97,40.78-33.54,69.21,4.77,18.26,17.65,32.44,34.96,39.63l32.23,13.38,39.36,16.63,19.84,8.3c7.34,3.07,14.21,6.24,22.11,7.7,2.69.5,9.72,1.41,12.66,1.41h482.57c12.95,0,26.85-3.14,37.88-9.68l35.76-21.19,47.91-28.75,13.54-8.25c7.83-4.77,14.55-10.67,19.79-18.14,13.03-18.57,14.99-42.71,4.5-62.84-7.31-14.03-19.43-24.96-34.51-30.02-8.84-2.97-17.87-3.01-27.17-2.71l-28.95.95-51.45,1.39-31.15,1.01-11.08.41-33.64,1-20.82.57-24.2.71-21.41.62-31.18,1.01-46.85,1.23-26.76,1.01-25.79.76-50.08,1.35-25.76.81-27.57.92-38.39,1.09-27.55.64-9.94.45-23.49.7-31.2,1-43.06,1.18-19.55.73-31.14.93Z"/>
  <rect class="st0" width="996.99" height="494.12"/>
  <g>
    <g>
      <path d="M30.87,328.7l-5.27,5.87-15.64.63-1.66.06c-.45.02-.15-1.47.08-1.86,2.47-4.13,3.44-7.04,6.84-11.12,4.63-5.54,9.82-10.23,16.08-13.75,4.5-2.53,8.78-5.26,13.87-6.45l9.12-2.15c8.14-1.92,19.66-2.35,28.02-1.69,4.04.32,7.99-.03,12.08-.13l14.66-.38,16.63-.47,16.6-.54,14.2-.35,15.88-.46,11.23-.44,16.25-.43,17.16-.46,16.86-.5,42.2-1.33,15.39-.43,15.89-.45,15.8-.49,22.3-.85,17-.45,14.56-.45,17.61-.45,17.98-.45,17.25-.45,17.62-.47,17.6-.45,11.32-.43,15.26-.48,15.81-.45,17.16-.46,17.61-.46,15.17-.42,27.38-.92,34.99-.92,23.06-.82,84.09-2.34,15.44-.45,18.05-.44,14.24-.42,4.51-.13.14,10.41-21.14.61-15.81.45-16.12.57-40.15,1.25-15.12.45-16.71.46-17.15.45-12.58.45-16.79.44-16.62.45-15.89.45-12.58.46-17.24.44-16.72.46-17.52.45-13.66.46-26.9.91-15.91.43-15.81.45-16.62.46-14.46.44-16.26.49-18.42.63-12.19.31-14.58.41-15.43.44-16.26.46-17.16.45-15.88.45-8.6.37-18.87.51-16.81.45-17.52.46-17.26.45-17.52.45-16.26.54-74.38,2.19-18.95.55c-14.61.42-34.63,8.45-44.56,19.51Z"/>
      <path d="M29.32,303.26l-8.39,5.67c-5.26-3.04-6.66-9.88-3.73-15.61,2.2-4.29,8.17-6.03,12.56-3.91l.49,11.36c.03.74-.38,2.12-.93,2.49Z"/>
      <g>
        <path d="M484.4,273.38c-1.28-1.71-3.16-4.03-4.57-5.67l-6.59-7.63-14.86.24-18.14.46-18.07.45-17.97.46-10.62.28-9.89,13.02-.2,10.26-12.22.52c-.44.02-1.48-.67-1.51-1.23l-.41-8.78-10.88-12.9-10.63.24-15.57.4-18.15.44-18.43.45-18.05.45-10.17.29-5.06,6.69-5.35,6.43v10.82s-12.36.46-12.36.46c-2.27.08-.76-8.08-1.55-10.48l-11.11-13.06-12.49.28-14.21.38-18.06.46-17.01.34c-1.46.03-3.33.3-4.76.46l-6.65,8.7c-1.07,1.41-2.56,3.13-3.36,4.69-2.02,3.95,1.98,10.85-1.94,10.97l-51.17,1.49-16.75.26-1.06-43.88c-.03-1.3.31-2.18,1.78-2.21l15.32-.31,18.12-.46,18.07-.45,18.52-.46,17.62-.45,18.07-.45,18.07-.45,17.62-.45,18.6-.47,17.62-.45,18.07-.45,18.07-.45,18.07-.46,17.62-.45,17.99-.46,18.6-.45,18.52-.45,17.62-.45,16.05-.41,9.97-.38,13.09-.18,17.37-.36,19.78-.54-.36-21.34,10.65-.34,14.2-.39,18.51-.45,16.72-.45,18.15-.44,17.98-.46,18.06-.45,18.09-.44c4.57-.11,9.55-.56,14.02-.09,4.84,2.5,9.26,5.56,13.86,8.38l4.98,3.05,7.59,4.65,7.9,4.84,6.17,3.78,6.72,4.17,25.63,15.75c4,2.46,7.89,5.47,12.26,7.03,2.38.85,20.52,2.68,24.41,3.01l9.38.79-.03-6.16c-.01-1.89-3.46-.4-4.7-1.73-3.88-4.15-5.09-14.13-1.56-19.8,2.25-3.62,5.07-.94,6.09-2.95,1.24-2.46,2.17-5.61,3.92-7.81,3.76-4.72,9.31-7.7,15.32-7.96l10.13-.44c4.29-.18,10.45-.73,13.93,1.58s5.66,6.33,5.81,10.43l.35,9.53.35,17.78.44,15.57c.27.92,2.46.87,3.38.95,10.71.93,11.77,1.05,21.92,4.75,4.66,1.7,11.04,4.74,14.75,7.82,10.75,8.91,11.83,10.62,18.91,22.27.13.22.32.75.19.92-.17.23-1.04.74-1.31.74l-11.57.11c-7.31-9.2-16.32-16.21-27.19-20.62-13.08-5.31-20.52-5.19-34.71-5.16-.57,0-.87-1.5-.9-2.22l-.21-7.25c-.05-1.86,8.47-.46,11.62-1.32l-.31-18.35-.4-16.43-.23-8.18c-.09-3.2-1.51-7.06-5.13-7.81-3.06-.63-6.57.05-9.76.12l-10.92.22c-7.75.16-15.41,11.72-10.47,10.47l8.94-2.27,5.16-1.11c.34-.07,1.12.32,1.14.82l.89,27.65c.09.52.26.88.12.98-.22.14-1.09.52-1.35.47l-4.08-.76c-2.02-.38-3.85-.67-5.88-.94l-6.28-.81c-.36-.05-1.23.64-1.23,1.01v4.19c-.01.64.64,2.09,1.27,2.15l5.2.55,7.37.82c3.49.39,8.3.24,9.74,2.68.2.33-.59.96-1,.97l-6.76.28-15.13.37-16.86.46-75.3,2.29-104.7,3.13-15.61.48-26.02.86-20.32.47-11.75.24-.56-9.32Z"/>
        <path d="M718.02,260.32c-2.84-.62-5.13-2.58-7.38-3.9l-7.74-4.56-3.45-2.3-6.98-4.3-4.47-2.75-6.72-4.13-21.74-13.55-12.44-7.68c1.09-3.71,2.67-7.27,5.19-9.72,4.46-4.33,10.06-3.81,14.96-.82l12.39,7.54,14.44,8.64,4.53,2.73,10.6,6.43,3.99,2.44,14.46,8.57c2.33,1.38,3.69,3.45,4.45,5.95,1.75,5.71-2.49,11.97-5.29,12.34s-5.88-.29-8.8-.94Z"/>
        <path d="M80.77,292.67c-3.36.55-5.74.17-10.75.29-8.18.21-16,.96-23.95,3.29-6.99-9.76-9.19-22.09-5.95-33.53l39.77-.92.42,13.58.47,17.28Z"/>
        <path d="M778.52,234.31c9.05,10.25,4.07,29.09-.48,30.24-.38.09-.98-.99-.99-1.41l-.65-27.67c-.01-.5.28-1.24.41-1.49.18-.33,1.41,0,1.71.34Z"/>
      </g>
    </g>
    <g>
      <path d="M87.37,320.21l31.14-.93,19.55-.73,43.06-1.18,31.2-1,23.49-.7,9.94-.45,27.55-.64,38.39-1.09,27.57-.92,25.76-.81,50.08-1.35,25.79-.76,26.76-1.01,46.85-1.23,31.18-1.01,21.41-.62,24.2-.71,20.82-.57,33.64-1,11.08-.41,31.15-1.01,51.45-1.39,28.95-.95c9.3-.3,18.32-.26,27.17,2.71,15.08,5.06,27.2,15.99,34.51,30.02,10.49,20.13,8.53,44.27-4.5,62.84-5.25,7.47-11.96,13.37-19.79,18.14l-13.54,8.25-47.91,28.75-35.76,21.19c-11.03,6.54-24.93,9.68-37.88,9.68H188.08c-2.94,0-9.97-.91-12.66-1.41-7.9-1.46-14.77-4.63-22.11-7.7l-19.84-8.3-39.36-16.63-32.23-13.38c-17.3-7.18-30.18-21.37-34.96-39.63-7.43-28.42,6.85-57.66,33.54-69.21,8.67-3.75,17.34-4.58,26.92-4.86ZM44.48,357.4c-2.02,3.49-3.3,7.36-4.22,11.38-4.85,21.17,5.65,42.88,25.55,51.25l58.39,24.56,15.28,6.51,8.59,3.63,8.91,3.77,8.14,3.58c6.63,2.91,17.68,5.46,25.13,5.46l254.09.03h16.05s202.6,0,202.6,0c8.28,0,15.96-.15,23.79-2.37,4.22-1.2,8.61-1.94,12.58-4.31l41.42-24.79,42.25-25.45,18.54-11.45c9.67-5.97,16.58-16.02,19.42-27.12,5.99-23.43-5.69-46.96-28.36-55.8-7.57-2.95-15.33-2.75-23.38-2.48l-25.31.84-46.06,1.24-32.69.97-14.29.56-17.19.46-36.56,1.09-29.81.91-16.82.61-59.46,1.72-19.58.55-39.19,1.36-24.44.62-39.73,1.08-32.34,1-28.64.9-35.68,1-31.2.85-33.38,1.18-31.65.84-37.28,1.1-20.1.72-36.5.93c-16.1.41-29,9.39-36.9,23.04Z"/>
      <path d="M122.56,379.12c0,21.1-17.12,38.21-38.23,38.21s-38.23-17.11-38.23-38.21,17.12-38.21,38.23-38.21,38.23,17.11,38.23,38.21ZM110.16,379.14c0-14.27-11.58-25.84-25.85-25.84s-25.85,11.57-25.85,25.84,11.58,25.84,25.85,25.84,25.85-11.57,25.85-25.84Z"/>
      <path d="M102.1,379.15c0,9.82-7.97,17.78-17.79,17.78s-17.79-7.96-17.79-17.78,7.97-17.78,17.79-17.78,17.79,7.96,17.79,17.78ZM90.62,379.15c0-3.46-2.81-6.27-6.28-6.27s-6.28,2.81-6.28,6.27,2.81,6.27,6.28,6.27,6.28-2.81,6.28-6.27Z"/>
      <g>
        <path d="M364.92,405.42c0,30.42-24.67,55.08-55.1,55.08s-55.1-24.66-55.1-55.08,24.67-55.08,55.1-55.08,55.1,24.66,55.1,55.08ZM351.25,405.45c0-22.87-18.55-41.41-41.43-41.41s-41.43,18.54-41.43,41.41,18.55,41.41,41.43,41.41,41.43-18.54,41.43-41.41Z"/>
        <path d="M338.2,405.29c0,15.62-12.67,28.28-28.3,28.28s-28.3-12.66-28.3-28.28,12.67-28.28,28.3-28.28,28.3,12.66,28.3,28.28ZM324.36,405.43c0-8.01-6.49-14.5-14.5-14.5s-14.5,6.49-14.5,14.5,6.49,14.5,14.5,14.5,14.5-6.49,14.5-14.5Z"/>
      </g>
      <g>
        <path d="M603.68,405.45c0,30.4-24.66,55.05-55.08,55.05s-55.08-24.65-55.08-55.05,24.66-55.05,55.08-55.05,55.08,24.65,55.08,55.05ZM589.91,405.45c0-22.86-18.54-41.38-41.4-41.38s-41.4,18.53-41.4,41.38,18.54,41.38,41.4,41.38,41.4-18.53,41.4-41.38Z"/>
        <path d="M576.88,405.3c0,15.61-12.66,28.26-28.27,28.26s-28.27-12.65-28.27-28.26,12.66-28.26,28.27-28.26,28.27,12.65,28.27,28.26ZM563.12,405.42c0-8.02-6.51-14.53-14.53-14.53s-14.53,6.5-14.53,14.53,6.51,14.53,14.53,14.53,14.53-6.5,14.53-14.53Z"/>
      </g>
      <g>
        <path d="M723.09,405.4c0,30.4-24.65,55.04-55.07,55.04s-55.07-24.64-55.07-55.04,24.65-55.04,55.07-55.04,55.07,24.64,55.07,55.04ZM709.29,405.42c0-22.85-18.53-41.38-41.4-41.38s-41.4,18.53-41.4,41.38,18.53,41.38,41.4,41.38,41.4-18.53,41.4-41.38Z"/>
        <path d="M696.32,405.26c0,15.6-12.65,28.24-28.25,28.24s-28.25-12.64-28.25-28.24,12.65-28.24,28.25-28.24,28.25,12.64,28.25,28.24ZM682.54,405.42c0-8.03-6.51-14.54-14.54-14.54s-14.54,6.51-14.54,14.54,6.51,14.54,14.54,14.54,14.54-6.51,14.54-14.54Z"/>
      </g>
      <g>
        <path d="M245.45,405.41c0,30.42-24.67,55.07-55.1,55.07s-55.1-24.66-55.1-55.07,24.67-55.07,55.1-55.07,55.1,24.66,55.1,55.07ZM231.78,405.46c0-22.87-18.55-41.42-41.44-41.42s-41.44,18.54-41.44,41.42,18.55,41.42,41.44,41.42,41.44-18.54,41.44-41.42Z"/>
        <path d="M218.67,405.28c0,15.62-12.67,28.29-28.3,28.29s-28.3-12.67-28.3-28.29,12.67-28.29,28.3-28.29,28.3,12.67,28.3,28.29ZM204.96,405.39c0-8.04-6.52-14.55-14.56-14.55s-14.56,6.52-14.56,14.55,6.52,14.55,14.56,14.55,14.56-6.52,14.56-14.55Z"/>
      </g>
      <g>
        <path d="M484.3,405.44c0,30.4-24.65,55.04-55.07,55.04s-55.07-24.64-55.07-55.04,24.65-55.04,55.07-55.04,55.07,24.64,55.07,55.04ZM470.56,405.44c0-22.86-18.54-41.39-41.4-41.39s-41.4,18.53-41.4,41.39,18.54,41.39,41.4,41.39,41.4-18.53,41.4-41.39Z"/>
        <path d="M457.49,405.27c0,15.61-12.66,28.26-28.27,28.26s-28.27-12.65-28.27-28.26,12.66-28.26,28.27-28.26,28.27,12.65,28.27,28.26ZM443.73,405.4c0-8.01-6.49-14.5-14.5-14.5s-14.5,6.49-14.5,14.5,6.49,14.5,14.5,14.5,14.5-6.49,14.5-14.5Z"/>
      </g>
      <path d="M779.95,401.34h-11.51c-3.17-6.61-.36-8.52-4.38-10.1l-5.89-2.32c-3.26.56-7.76,5.65-9.75,3.67l-7.4-7.36c-.55-.55.6-1.98.95-2.59l3.58-6.09-3.08-8.14c-1.99-1.34-9.36-1.36-9.49-3.52-.22-3.77-.19-7.22-.03-10.96,2.22-2.11,7.32-1.38,9.69-3.66l2.7-6.77c-.86-3.88-5.91-7.51-3.85-9.56l7.83-7.8c12.02,6.54,6.15,4.99,14.04,2.55,4.69-1.46,1.88-3.28,5.03-10.08,4.22-.31,7.64-.3,12.02-.09l2.62,9.07,5.59,2.47c4.5,1.99,4.83-1.55,10.14-3.67,2.32.75,7.47,6.34,9.07,8.66-1.34,3.01-2.79,5.42-4.65,8.25l3.42,7.59c2.92,1.59,9.38,1.48,9.36,3.89l-.1,10.18c-.19.98-2.6,1.55-3.58,1.81l-5.88,1.55c-.93,2.72-1.76,4.72-2.87,7.27-.63,1.44.94,2.73,1.57,3.96l2.69,5.24c-2.66,3.2-5.46,6.03-8.75,8.69l-6.63-3.94c-1.24-.74-1.93-.3-3.22.15l-6.17,2.14-1.39,5.15c-.31,1.14-.57,3.58-1.69,4.37ZM792.78,359.8c0-10.19-8.26-18.44-18.45-18.44s-18.45,8.26-18.45,18.44,8.26,18.44,18.45,18.44,18.45-8.26,18.45-18.44Z"/>
    </g>
  </g>
  <g>
    <g>
      <path d="M842.42,161.59l-69.99.17-57.77.24-13.7.21-105.1.25-47.47.2-40.6.13-.04-32.32,111.99.3,78.94.32,55.66.16,29.02.24,111.64.18.05,28.6c0,.48-.97,1.3-1.37,1.14l-51.25.18Z"/>
      <path d="M484.87,170.71l-29.11.79c-1.1.03-2.37-.54-3.11-1.19l-9.81-9.31-39.65-36.75,82.77.08,16.51.09.02,45.72-17.62.58Z"/>
      <path d="M945.3,176.97c-2.45-2.55-4.49-5.2-7.17-7.14-5.91-4.28-12.66-6.07-19.82-7.06l.1-33.2c8.73-.43,17.15-3.56,23.2-9.66l3.56-4.15c3.08-.19,5.61-.15,8.68,0l22.55,23.96.02,12.83-13.52,14.35-9.25,9.89-8.34.18ZM937.41,159.02l16.66,7.83c.71-1.76,1.04-3.6,1.35-5.68,1.76-11.82,1.87-23.82-1.15-35.59l-17.74,8.32c-1.8.84-3.82,1.38-5.32,2.59l.06,19.35c1.72,1.55,3.92,2.13,6.15,3.17Z"/>
      <path d="M898.97,161.74v-30.37c1.84-.7,3.77-.8,5.79-.93l9.73-.62.03,32.98-15.54-1.07Z"/>
    </g>
    <g>
      <g>
        <path d="M324.39,72.51l-83.47.04c-.84,0-1.29-.43-1.16-.56l.79-.81c7.56-7.73,16.44-13.23,26.96-16.05l.81-2.92h27.09s1.17,2.7,1.17,2.7c10.22,3.28,20.42,8.59,27.81,17.61Z"/>
        <path d="M336.14,91.05l-40.26.06-29.84.08-40.03-.14c3.2-2.21,6.11-3.24,9.1-4.94l.1-10.26,12.37-.14,51.87-.06,29.13.22.14,10.5c2.51,1.51,4.8,2.3,7.41,4.68ZM264.72,86.73l.08-6.59-17.75-.07.03,6.61,17.64.05ZM290.78,86.66l-.15-6.53h-17.9s-.04,6.57-.04,6.57l18.09-.04ZM316.5,86.71l-.19-6.63-17.44.08-.08,6.5,17.72.05Z"/>
      </g>
      <g>
        <path d="M417.1,39.74c-.46,0-1.21.43-1.35.68-.8,1.43,3.6.53,3.61,4.28l.06,17.21c0,1.84-1.05,4.2-3.41,4.2h-21.68c-1.95,0-3.85-1.51-3.88-3.54l-.2-16.04c-.03-2.34,1.04-4.27,3.14-4.97.64-.22.29-2.14-.33-2.13l-7.41.12-1.54,6.73-4.39,3.63-9.81.06-5.31,13.2-11.9-2.43,6.74-15.75c-1.14-5.85-3.13-1.59-3.31-6.53-9.85-.63-14.08,3.27-22.75,6.68l-8.87,3.5c-.99.39-8.4,1.41-9.28-1.22l-.2-22.7c0-1.07.9-3.45,2.22-3.45l38.98-.05.12-3.6,13.42-.09.1-5.09-3.14-.38.11-7.08,23.91-.03.02,7.27-16.15.06.06,5.24,24.64-.02,16.26-.08.46,3.76,25.22.03.55,2.01,54.65.09,3.29-7.88c.29-.7,2.31-.91,2.98-.33l.13,8.08c2.2.47,4.43-.23,6.69-.42,3.95-.33,7.56-.19,11.91-.19l.12,8.7-12.49-.09-3.61-.48-26.98.23c1.42.51,2.68.73,4.02,1.02l9.58.74,11.03.46-.64,6.33c-.98.44-2.32.01-3.4-.14l-28.29-4.09-.29-4.5-28.93.04-.04,5.97-5.71.25-.51,2.76h-18.21ZM371.37,47.65c3.2.19,5.48.48,8.02.03s3.47-3.74,3.06-5.95l-5.94.09c-.09,1.5.3,3.04.63,4.71-3.06.55-2.94-4.44-4.29-3.37-.51,1.16-1.12,3.07-1.48,4.51ZM415.08,53.52c0-5.55-4.5-10.06-10.06-10.06s-10.06,4.5-10.06,10.06,4.5,10.06,10.06,10.06,10.06-4.5,10.06-10.06Z"/>
        <rect x="390.22" y="95.19" width="35.15" height="11.43" transform="translate(306.7 508.66) rotate(-89.97)"/>
        <path d="M413.58,81.18l-11.28.18-1.37-4.96c-.76-2.75-1.18-5.09-1.68-8.2l14.17-.06.16,13.04Z"/>
        <path d="M421.88,85.54c-2.26.42-4.07.46-6.26.17l.06-17.12c2.58-.44,4.1-1.5,6.16-4.03l.04,20.98Z"/>
        <circle cx="405.03" cy="53.51" r="7.75"/>
      </g>
    </g>
    <g>
      <path d="M166.43,189.88l-27.75-5.37-17.92-3.65-16.91-3.37-25.93-5.26c-1.38-.28-2.72-1.19-3.53-2.34l-6.69-9.53c-.01-1.35-.07-3.22-.56-4.38l-10.28-5c-1.31-.64-2.7-1.37-3.76-2.44v-24.42c-.01-.76.82-1.9,1.59-2.27l11.79-5.68c.41-.2,1.18.34,1.63.72l.15-6.35c.03-1.49,1.69-2.89,2.72-3.9,2.75-2.72,5.34-5.15,8.46-7.38l9.89.43,274.28.03,54.06,49.84,32.69,30.61c-5.02-.41-9.09-1.34-13.55-2.23l-16.25-3.27-20.1-3.83c-1.11-.21-2.32-.61-3.41-1.14l-77.07-37.41c-2.3-1.12-4.3-2.78-6.76-3.21-6.55-1.14-13.85.37-18.89,4.77-2.58,2.25-3.98,5.47-5.8,8.26l-11.78,17.96-12.16,18.55c-2.47,3.77-4.72,7.56-7.46,11.09l-20.93.08-69.76.1ZM259.5,162.98l14.62-22.08c.91-1.37.86-3.14.07-4.55l-5.55-9.92c-.42-5.24,2.54-8.96-2.69-12.09-3.44-2.06-6.71-4.36-10.11-6.56l-6.6-4.27c-2.39-1.55-5.58-.85-7.25,1.69l-11.58,17.59-10.77,16.38-7.37,11.15c-.97,1.47-1.59,3.14-1.08,4.89.33,1.12,1.55,2.53,2.85,3.37l26.01,16.81c1.82,1.18,3.83,2.59,5.83,3,2.49.51,4.55-1.41,5.72-3.22l7.9-12.2ZM146.5,138.58c0-12.48-10.12-22.59-22.6-22.59s-22.6,10.12-22.6,22.59,10.12,22.59,22.6,22.59,22.6-10.12,22.6-22.59ZM67.55,151.76v-31.78c-2.14.67-3.64,1.36-5.34,2.24l-5.56,2.9.05,21.7c3.7,2.01,7.11,3.6,10.85,4.94ZM278.99,131.26c-1.03-2.49-2.27-4.86-3.71-6.85-.75-1.04-3.25.38-3.53,1.53l3.98,7.58c1.18.62,3.94-.61,3.26-2.26Z"/>
      <path d="M444.23,188.5l10.2,2.08,8,17.82,8.06,18.08H172.74s10.39-27.99,10.39-27.99l79.09-.36,25.71-39.36,11.74-18.15c9.34-5.98,11.33-2.75,17.8-.69,5.36,1.71,9.24,5.07,14.23,7.52l57.21,28.14c4.49,2.21,8.61,3.68,13.52,4.56l9.23,1.66,13.94,2.86,18.64,3.82ZM326.64,162.15l-11.31-7.86c-1.59.49-3.18,2.43-3.05,3.87l11.98,8.04c1.04-1.26,1.92-2.63,2.38-4.04ZM305.9,202.51l12.05-17.83,7.22-10.95c.8-1.22.98-2.9-.45-3.98-4.33-3.27-8.85-6.08-13.49-9.04-1.1-.7-2.72-2.14-3.96-2.15-.74.01-2.34,1.16-2.78,1.83l-10.39,15.74-8.06,11.79c-1.09,1.59-1.5,3.87.54,5.22l15.44,10.19c1.22.8,2.9.65,3.9-.82ZM357.91,174.61l-9.77-6.61c-.53-.36-1.72-1.16-2.29-.99-.87.26-2.78,2.75-2.68,3.22.07.34.82.89,1.13,1.1l11.15,7.31,2.46-4.03ZM337.23,214.78c3.3-4.47,5.98-9,9.05-13.64,3.62-5.48,7.49-10.5,10.72-16.27.67-1.19-1.18-3.04-2.09-3.63l-14.33-9.26c-.73-.47-2.08-1.04-2.81-.9-.61.11-1.55.89-1.99,1.54l-11.44,16.98c-2.48,3.67-4.51,7.42-7.11,10.98-1.23,1.68-1.52,3.84.5,5.2l7.46,5.05,8.45,5.29c.89.56,2.9-.4,3.6-1.33Z"/>
      <g>
        <path d="M247.72,167.87c.12,1.06-1.36,1.74-2.2,1.6-.67-.12-1.43-1.16-1.51-1.96l-.64-5.8c-.14-1.28-.45-2.92-.75-4.22l-10.38-6.33-10.06,2.45c-.9.22-2.13-.02-2.48-.6-.57-.93-.04-2.54,1.04-2.82l9.63-2.5,9.43-13.72c.18-1.38-.11-3.78-.29-5.24l-.61-5.12c-.11-.89.37-1.98,1.2-2.17.98-.22,1.99.62,2.14,1.65l.85,5.95.62,4.35,10.19,6.66,9.67-2.33c.98-.24,2.38.31,2.61,1.11.32,1.07-.37,2.3-1.38,2.52l-5.42,1.17-3.99.92-8.88,13.6,1.2,10.82ZM251.51,142.64l-9.42-5.63-7.44,11.32,9.13,5.75,7.73-11.44Z"/>
        <path d="M265.31,124.42c-1.53-.51-2.27-.88-3.29-1.62-6.91-4.98-9.5-4.43-9.52-12.79.54.03,1.71.16,2.11.43l10.99,7.46c.1,2.27-.03,4.06-.29,6.51Z"/>
      </g>
      <path d="M140.32,138.62c0,9.07-7.36,16.43-16.44,16.43s-16.44-7.36-16.44-16.43,7.36-16.43,16.44-16.43,16.44,7.36,16.44,16.43ZM133.18,138.68c0-5.11-4.14-9.25-9.26-9.25s-9.26,4.14-9.26,9.25,4.14,9.25,9.26,9.25,9.26-4.14,9.26-9.25Z"/>
    </g>
  </g>
</svg>