<?xml version="1.0" encoding="UTF-8"?>
<svg id="Capa_1" data-name="Capa 1" xmlns="http://www.w3.org/2000/svg" viewBox="0 0 676.17 481.74">
  <defs>
    <style>
      .cls-1 {
        fill: #fff;
      }

      .cls-2 {
        stroke: #fff;
        stroke-miterlimit: 10;
        stroke-width: 5px;
      }

      .cls-2, .cls-3 {
        fill: none;
      }

      .cls-3 {
        stroke: #000;
        stroke-linecap: round;
        stroke-linejoin: round;
        stroke-width: .5px;
      }
    </style>
  </defs>
  <g>
    <g>
      <g>
        <path d="M355.19,383.32l-.02,24.86h17.19l.02-24.86h-17.19ZM72.09,425.22l-.22-29.35c-.04-5.9-6.78-10.01-11.93-9.87-4.96.13-11.57,4.08-11.61,10.02l-.18,29.24,23.94-.04ZM237.39,372.61l-.11-24.8-13.92.04c-3.09,8.01-3.68,16.09-3.13,24.74l17.16.02ZM312.15,337.23c-2.54-3.67-4.39-5.9-7.77-9.03l-.17,9.4,7.94-.37ZM400.09,337.54l.06-22.42c-6.2.99-11.33,2.56-17.1,5.07v17.37l17.04-.02ZM60.56,313.89h2.16c.98,0,1.78.8,1.78,1.78v17.21c0,.98.8,1.78,1.78,1.78h17.18c.98,0,1.78-.8,1.78-1.78v-17.2c0-.98.8-1.78,1.78-1.78h17.13c.98,0,1.78.8,1.78,1.78v17.2c0,.98.8,1.78,1.78,1.78h17.1c.98,0,1.78-.8,1.78-1.78v-17.2c0-.98.8-1.78,1.78-1.78l17.29-.03c.98,0,1.78.8,1.78,1.78v17.21c0,.98.8,1.78,1.78,1.78h16.98c.98,0,1.78-.79,1.78-1.77v-17.2c0-.98.8-1.78,1.78-1.78h17.48c.98,0,1.78.79,1.78,1.77v44.88c0,8.76-5.65,15.9-14.41,16.03l-1.12.02-.24,91.81,36.54.03.3-104.97c.1-33.66,29.76-60.21,63.23-58.67,31.33,1.45,57.58,27.18,57.67,58.67l.32,104.84h13.6l.21-104c.07-33.32,28.34-60.15,61.63-59.57,31.97.56,59.28,26.57,59.36,58.74l.26,104.92,36.42.03v10.57l-34.72.09-448.42.02-.02-102.47-1.48-.04c-8.71-.21-15.66-7.34-15.65-16.05l.06-44.87c0-.98.8-1.78,1.78-1.78l17.27-.03c.98,0,1.78.79,1.78,1.78l.03,17.2c0,.98.8,1.78,1.78,1.78h16.92c.98.01,1.78-.78,1.79-1.77v-17.21c0-.97.8-1.77,1.77-1.78l14.88.03ZM153.39,470.41l-.06-59.67c-1.95-13.37-13.32-23.05-26.77-22.72-11.73.29-25,9.67-25.07,22.8l-.21,59.59h52.11ZM456.14,408.18v-24.86h-17.22v24.86h17.22ZM456.13,435.52l-.02-17.16-17.16.02.02,17.16,17.16-.02ZM456.12,468.44v-22.69h-17.14v22.69h17.14ZM455.99,372.63c.55-8.77-.05-16.51-3.02-24.75l-14.08-.08.02,24.75,17.07.08h.01ZM447.23,337.09l-8.32-10.2v10.59c3.03.01,5.35-.06,8.32-.39ZM428.84,337.44l-.16-17.08c-6.21-2.75-11.74-4.56-18.27-5.18l-.03,22.41,18.45-.15h.01ZM428.78,468.44v-22.69h-18.41v22.69h18.41ZM428.78,435.52v-17.14h-18.41v17.14h18.41ZM428.78,408.16v-24.84h-18.41v24.84h18.41ZM428.78,372.65v-24.84h-18.41v24.84h18.41ZM400.16,435.54v-17.16h-17.16v17.16h17.16ZM400.16,408.18v-24.86h-17.16v24.86h17.16ZM400.16,372.65v-24.86h-17.16v24.86h17.16ZM400.14,468.44v-22.69h-17.14v22.69h17.14ZM372.54,337.57h0s-.22-10.17-.22-10.17l-8.55,10.08,8.77.09ZM372.38,372.62l.03-24.79-13.93.04c-3.09,8.01-3.69,16.09-3.14,24.74l17.03.02h.01ZM372.34,468.44v-22.69h-17.15v22.69h17.15ZM372.34,435.54v-17.16h-17.17v17.16h17.17ZM321.04,408.02l-.05-24.67h-16.7l.1,24.89,16.65-.22ZM321.02,468.44v-22.69h-16.71v22.69h16.71ZM320.92,435.47l.1-17.05h-16.7l.11,17.16,16.49-.1h0ZM320.89,372.59c.53-8.7-.07-16.46-3.02-24.72h-13.73l.25,24.79,16.5-.07ZM293.61,337.6l.06-17.01c-5.59-2.79-11.09-4.55-17.5-5.33l-.06,22.28,17.5.06ZM293.66,468.44v-22.69h-17.55v22.69h17.55ZM293.66,435.52v-17.14h-17.55v17.14h17.55ZM293.66,408.16v-24.84h-17.55v24.84h17.55ZM293.66,372.65v-24.84h-17.55v24.84h17.55ZM265.9,435.54v-17.16h-18.48v17.16h18.48ZM265.9,408.18v-24.86h-18.48v24.86h18.48ZM265.9,372.65v-24.86h-18.48v24.86h18.48ZM265.88,468.44v-22.69h-18.44v22.69h18.44ZM265.82,337.54l.05-22.44c-6.74.79-12.86,2.62-18.51,5.56l.17,16.89h18.29ZM237.54,337.55l-.36-10.18-8.44,9.92,8.8.26ZM237.25,408.18v-24.86h-17.2v24.86h17.2ZM237.23,435.54v-17.16h-17.18v17.16h17.18ZM237.22,468.54v-22.79h-17.14v22.79h17.14Z"/>
        <path class="cls-1" d="M153.33,410.74l.06,59.67h-52.11l.21-59.59c.07-13.13,13.34-22.51,25.07-22.8,13.45-.33,24.82,9.35,26.77,22.72Z"/>
        <path d="M615.54,313.86h14.99c.98,0,1.78.8,1.78,1.78v17.2c0,.98.8,1.78,1.78,1.78h17.19c.98,0,1.78-.8,1.78-1.78v-17.2c0-.98.8-1.78,1.78-1.78h17.02c.98,0,1.78.8,1.78,1.78l.03,44.74c.01,8.85-7.16,16.03-16.01,16.05h-1.04l-.03,102.81-153.79-.25.04-102.59h-1.04c-8.85,0-14.39-7.17-14.39-16.03v-44.73c0-.98.8-1.78,1.78-1.78h17.17c.98,0,1.78.8,1.78,1.78v17.2c0,.98.8,1.78,1.78,1.78h17.11c.98,0,1.78-.8,1.78-1.78v-17.2c0-.98.8-1.78,1.78-1.78h17.19c.98,0,1.78.8,1.78,1.78v17.2c0,.98.8,1.78,1.78,1.78h17.09c.98,0,1.78-.8,1.78-1.78v-17.2c0-.98.8-1.78,1.78-1.78h17.15c.98,0,1.78.8,1.78,1.78v17.2c0,.98.8,1.78,1.78,1.78h17.18c.98,0,1.78-.8,1.78-1.78v-17.2c0-.98.8-1.78,1.78-1.78h2.1ZM627.21,425.22l-.25-29.3c-.05-5.95-6.79-10-11.91-9.92-5.04.09-11.6,4-11.63,9.97l-.16,29.3,23.95-.05Z"/>
        <path d="M60.56,313.89v-132.45h-1c-8.88.02-16.08-7.18-16.07-16.06l.06-44.83c0-.98.8-1.78,1.79-1.78l18.32.07c.98,0,1.77.8,1.78,1.78l.06,17.41c0,.98.8,1.77,1.78,1.78h18.4c.98,0,1.78-.78,1.78-1.77l.08-17.56c0-.98.8-1.78,1.78-1.77l7.15-.02.06-116.05h4.73v3.16l62.27.04v41.43l-62.77.02-.05,71.4h7.01c.98,0,1.77.8,1.77,1.78v17.54c0,.97.79,1.77,1.76,1.78l18.44.09c1,.01,1.81-.79,1.81-1.78l-.03-17.6c0-.99.8-1.79,1.78-1.79h18.46c.98,0,1.78.8,1.78,1.78l-.19,44.89c0,8.69-6.94,15.8-15.63,16.02l-1.88.05.04,59.5v.06h404.47l.05-59.55-1.75-.03c-8.75-.13-16.08-7.26-16.09-16.01v-44.95c0-.98.51-1.78,1.49-1.78l18.72.04c.98,0,1.78.8,1.78,1.78v17.44c-.01.98.78,1.78,1.77,1.78h18.45c.99,0,1.78-.79,1.78-1.77v-17.46c0-.98.8-1.78,1.78-1.78h6.57l.09-71.42-62.41-.04V5.85l62.32-.05v-3.15c.88,0,3.32.07,4.53,0l.03,44.92-.03,71.16,2.86-.04,3.85-.04c1.88,0,2.52.87,2.52,1.85v17.46c0,.98.8,1.78,1.78,1.78h18.44c.98,0,1.78-.8,1.78-1.78v-17.46c0-.98.8-1.78,1.78-1.78h18.44c.98,0,1.78.8,1.78,1.78v44.89c.02,8.85-7.15,16.04-16,16.05h-1.07v132.42h-2.1c-.98,0-1.78.8-1.78,1.78v17.2c0,.98-.8,1.78-1.78,1.78h-17.18c-.98,0-1.78-.8-1.78-1.78v-17.2c0-.98-.8-1.78-1.78-1.78h-17.15c-.98,0-1.78.8-1.78,1.78v17.2c0,.98-.8,1.78-1.78,1.78h-17.09c-.98,0-1.78-.8-1.78-1.78v-17.2c0-.98-.8-1.78-1.78-1.78h-17.19c-.98,0-1.78.8-1.78,1.78v17.2c0,.98-.8,1.78-1.78,1.78h-17.11c-.98,0-1.78-.8-1.78-1.78v-17.2c0-.98-.8-1.78-1.78-1.78h-17.17c-.98,0-1.78.8-1.78,1.78v44.73c0,8.86,5.54,16.03,14.39,16.03h1.04l-.04,102.59h-.01v-10.57l-36.42-.03-.26-104.92c-.08-32.17-27.39-58.18-59.36-58.74-33.29-.58-61.56,26.25-61.63,59.57l-.21,104h-13.6l-.32-104.84c-.09-31.49-26.34-57.22-57.67-58.67-33.47-1.54-63.13,25.01-63.23,58.67l-.3,104.97-36.54-.03.24-91.81,1.12-.02c8.76-.13,14.41-7.27,14.41-16.03v-44.88c0-.98-.8-1.77-1.78-1.77h-17.48c-.98,0-1.78.8-1.78,1.78v17.2c0,.98-.8,1.77-1.78,1.77h-16.98c-.98,0-1.78-.8-1.78-1.78v-17.21c0-.98-.8-1.78-1.78-1.78l-17.29.03c-.98,0-1.78.8-1.78,1.78v17.2c0,.98-.8,1.78-1.78,1.78h-17.1c-.98,0-1.78-.8-1.78-1.78v-17.2c0-.98-.8-1.78-1.78-1.78h-17.13c-.98,0-1.78.8-1.78,1.78v17.2c0,.98-.8,1.78-1.78,1.78h-17.18c-.98,0-1.78-.8-1.78-1.78v-17.21c0-.98-.8-1.78-1.78-1.78h-2.16ZM370.43,306.49l-32.99-56.9-33.21,57.14,66.2-.24Z"/>
        <path class="cls-1" d="M626.96,395.92l.25,29.3-23.95.05.16-29.3c.03-5.97,6.59-9.88,11.63-9.97,5.12-.08,11.86,3.97,11.91,9.92Z"/>
        <rect class="cls-1" x="438.92" y="383.32" width="17.22" height="24.86"/>
        <rect class="cls-1" x="438.96" y="418.37" width="17.16" height="17.16" transform="translate(-.5 .52) rotate(-.07)"/>
        <rect class="cls-1" x="438.98" y="445.75" width="17.14" height="22.69"/>
        <path class="cls-1" d="M452.97,347.88c2.97,8.24,3.57,15.98,3.02,24.75h-.01l-17.07-.08-.02-24.75,14.08.08Z"/>
        <path class="cls-1" d="M438.91,326.89l8.32,10.2c-2.97.33-5.29.4-8.32.39v-10.59Z"/>
        <path class="cls-1" d="M428.68,320.36l.16,17.08h-.01l-18.45.15.03-22.41c6.53.62,12.06,2.43,18.27,5.18Z"/>
        <rect class="cls-1" x="410.37" y="445.75" width="18.41" height="22.69"/>
        <rect class="cls-1" x="410.37" y="418.38" width="18.41" height="17.14"/>
        <rect class="cls-1" x="410.37" y="383.32" width="18.41" height="24.84"/>
        <rect class="cls-1" x="410.37" y="347.81" width="18.41" height="24.84"/>
        <rect class="cls-1" x="383" y="418.38" width="17.16" height="17.16"/>
        <rect class="cls-1" x="383" y="383.32" width="17.16" height="24.86"/>
        <rect class="cls-1" x="383" y="347.79" width="17.16" height="24.86"/>
        <path class="cls-1" d="M400.15,315.12l-.06,22.42-17.04.02v-17.37c5.77-2.51,10.9-4.08,17.1-5.07Z"/>
        <rect class="cls-1" x="383" y="445.75" width="17.14" height="22.69"/>
        <polygon class="cls-1" points="372.54 337.56 372.54 337.57 363.77 337.48 372.32 327.4 372.54 337.56"/>
        <path class="cls-1" d="M372.41,347.83l-.03,24.79h-.01s-17.03-.01-17.03-.01c-.55-8.65.05-16.73,3.14-24.74l13.93-.04Z"/>
        <rect class="cls-1" x="355.18" y="383.32" width="17.19" height="24.86"/>
        <rect class="cls-1" x="355.19" y="445.75" width="17.15" height="22.69"/>
        <rect class="cls-1" x="355.17" y="418.38" width="17.17" height="17.16"/>
        <polygon class="cls-1" points="337.44 249.59 370.43 306.49 304.23 306.73 337.44 249.59"/>
        <polygon class="cls-1" points="320.99 383.35 321.04 408.02 304.39 408.24 304.29 383.35 320.99 383.35"/>
        <rect class="cls-1" x="304.31" y="445.75" width="16.71" height="22.69"/>
        <polygon class="cls-1" points="321.02 418.42 320.92 435.47 320.92 435.48 304.43 435.58 304.32 418.42 321.02 418.42"/>
        <path class="cls-1" d="M317.87,347.87c2.95,8.26,3.55,16.02,3.02,24.72l-16.5.07-.25-24.79h13.73Z"/>
        <path class="cls-1" d="M312.15,337.23l-7.94.37.17-9.4c3.38,3.13,5.23,5.36,7.77,9.03Z"/>
        <path class="cls-1" d="M293.67,320.59l-.06,17.01-17.5-.06.06-22.28c6.41.78,11.91,2.54,17.5,5.33Z"/>
        <rect class="cls-1" x="276.11" y="445.75" width="17.55" height="22.69"/>
        <rect class="cls-1" x="276.11" y="418.38" width="17.55" height="17.14"/>
        <rect class="cls-1" x="276.11" y="383.32" width="17.55" height="24.84"/>
        <rect class="cls-1" x="276.11" y="347.81" width="17.55" height="24.84"/>
        <rect class="cls-1" x="247.42" y="418.38" width="18.48" height="17.16"/>
        <rect class="cls-1" x="247.42" y="383.32" width="18.48" height="24.86"/>
        <rect class="cls-1" x="247.42" y="347.79" width="18.48" height="24.86"/>
        <rect class="cls-1" x="247.44" y="445.75" width="18.44" height="22.69"/>
        <path class="cls-1" d="M265.87,315.1l-.05,22.44h0s-18.29.01-18.29.01l-.17-16.89c5.65-2.94,11.77-4.77,18.51-5.56Z"/>
        <polygon class="cls-1" points="237.18 327.37 237.54 337.55 228.74 337.29 237.18 327.37"/>
        <path class="cls-1" d="M237.28,347.81l.11,24.8-17.16-.02c-.55-8.65.04-16.73,3.13-24.74l13.92-.04Z"/>
        <rect class="cls-1" x="220.05" y="383.32" width="17.2" height="24.86"/>
        <rect class="cls-1" x="220.05" y="418.38" width="17.18" height="17.16"/>
        <rect class="cls-1" x="220.08" y="445.75" width="17.14" height="22.79"/>
        <path class="cls-1" d="M71.87,395.87l.22,29.35-23.94.04.18-29.24c.04-5.94,6.65-9.89,11.61-10.02,5.15-.14,11.89,3.97,11.93,9.87Z"/>
      </g>
      <g>
        <path class="cls-2" d="M44.08,313.86h1.6l14.88.03h2.16c.98,0,1.78.8,1.78,1.78v17.21c0,.98.8,1.78,1.78,1.78h17.18c.98,0,1.78-.8,1.78-1.78v-17.2c0-.98.8-1.78,1.78-1.78h17.13c.98,0,1.78.8,1.78,1.78v17.2c0,.98.8,1.78,1.78,1.78h17.1c.98,0,1.78-.8,1.78-1.78v-17.2c0-.98.8-1.78,1.78-1.78l17.29-.03c.98,0,1.78.8,1.78,1.78v17.21c0,.98.8,1.78,1.78,1.78h16.98c.98,0,1.78-.79,1.78-1.77v-17.2c0-.98.8-1.78,1.78-1.78h17.48c.98,0,1.78.79,1.78,1.77v44.88c0,8.76-5.65,15.9-14.41,16.03l-1.12.02-.24,91.81,36.54.03.3-104.97c.1-33.66,29.76-60.21,63.23-58.67,31.33,1.45,57.58,27.18,57.67,58.67l.32,104.84h13.6l.21-104c.07-33.32,28.34-60.15,61.63-59.57,31.97.56,59.28,26.57,59.36,58.74l.26,104.92,36.42.03v10.57l-34.72.09-448.42.02-.02-102.47-1.48-.04c-8.71-.21-15.66-7.34-15.65-16.05l.06-44.87c0-.98.8-1.78,1.78-1.78l17.27-.03c.98,0,1.78.79,1.78,1.78l.03,17.2c0,.98.8,1.78,1.78,1.78h16.92c.98.01,1.78-.78,1.79-1.77v-17.21c0-.97.8-1.77,1.77-1.78"/>
        <line class="cls-2" x1="96.54" y1="241.11" x2="133.9" y2="240.93"/>
        <line class="cls-2" x1="381.81" y1="241.01" x2="577.71" y2="241.06"/>
        <polyline class="cls-2" points="133.3 240.95 135.83 240.95 375.71 241.01"/>
        <path class="cls-2" d="M60.56,314.01v-132.57h-1c-8.88.02-16.08-7.18-16.07-16.06l.06-44.83c0-.98.8-1.78,1.79-1.78l18.32.07c.98,0,1.77.8,1.78,1.78l.06,17.41c0,.98.8,1.77,1.78,1.78h18.4c.98,0,1.78-.78,1.78-1.77l.08-17.56c0-.98.8-1.78,1.78-1.77l7.15-.02.06-116.05h4.73v3.16l62.27.04v41.43l-62.77.02-.05,71.4h7.01c.98,0,1.77.8,1.77,1.78v17.54c0,.97.79,1.77,1.76,1.78l18.44.09c1,.01,1.81-.79,1.81-1.78l-.03-17.6c0-.99.8-1.79,1.78-1.79h18.46c.98,0,1.78.8,1.78,1.78l-.19,44.89c0,8.69-6.94,15.8-15.63,16.02l-1.88.05.04,59.5v.06h404.47l.05-59.55-1.75-.03c-8.75-.13-16.08-7.26-16.09-16.01v-44.95c0-.98.51-1.78,1.49-1.78l18.72.04c.98,0,1.78.8,1.78,1.78v17.44c-.01.98.78,1.78,1.77,1.78h18.45c.99,0,1.78-.79,1.78-1.77v-17.46c0-.98.8-1.78,1.78-1.78h6.57l.09-71.42-62.41-.04V5.85l62.32-.05v-3.15c.88,0,3.32.07,4.53,0l.03,44.92-.03,71.16,2.86-.04,3.85-.04c1.88,0,2.52.87,2.52,1.85v17.46c0,.98.8,1.78,1.78,1.78h18.44c.98,0,1.78-.8,1.78-1.78v-17.46c0-.98.8-1.78,1.78-1.78h18.44c.98,0,1.78.8,1.78,1.78v44.89c.02,8.85-7.15,16.04-16,16.05h-1.07v132.76"/>
        <path class="cls-2" d="M502.8,478.99l153.79.25.03-102.81h1.04c8.85-.02,16.02-7.2,16.01-16.05l-.03-44.74c0-.98-.8-1.78-1.78-1.78h-17.02c-.98,0-1.78.8-1.78,1.78v17.2c0,.98-.8,1.78-1.78,1.78h-17.19c-.98,0-1.78-.8-1.78-1.78v-17.2c0-.98-.8-1.78-1.78-1.78h-17.09c-.98,0-1.78.8-1.78,1.78v17.2c0,.98-.8,1.78-1.78,1.78h-17.18c-.98,0-1.78-.8-1.78-1.78v-17.2c0-.98-.8-1.78-1.78-1.78h-17.15c-.98,0-1.78.8-1.78,1.78v17.2c0,.98-.8,1.78-1.78,1.78h-17.09c-.98,0-1.78-.8-1.78-1.78v-17.2c0-.98-.8-1.78-1.78-1.78h-17.19c-.98,0-1.78.8-1.78,1.78v17.2c0,.98-.8,1.78-1.78,1.78h-17.11c-.98,0-1.78-.8-1.78-1.78v-17.2c0-.98-.8-1.78-1.78-1.78h-17.17c-.98,0-1.78.8-1.78,1.78v44.73c0,8.86,5.54,16.03,14.39,16.03h1.04l-.04,102.59Z"/>
      </g>
    </g>
    <g>
      <path class="cls-1" d="M571.76,410.59l.06,59.67h-52.11l.21-59.59c.07-13.13,13.34-22.51,25.07-22.8,13.45-.33,24.82,9.35,26.77,22.72Z"/>
      <g>
        <line class="cls-3" x1="571.82" y1="470.27" x2="571.82" y2="470.26"/>
        <path class="cls-3" d="M571.82,470.26h-52.11l.21-59.59c.07-13.13,13.34-22.51,25.07-22.8,13.45-.33,24.82,9.35,26.77,22.72l.06,59.67Z"/>
      </g>
    </g>
  </g>
  <rect x="500.13" y="470.92" width="5.32" height="5.57"/>
</svg>